<svg width="300" height="113" viewBox="0 0 300 113" fill="none" xmlns="http://www.w3.org/2000/svg">
<path d="M253.465 99.5151C252.554 99.7427 251.359 99.8565 249.88 99.8565C248.401 99.7427 247.092 99.572 245.954 99.3444C244.93 99.003 244.418 98.6616 244.418 98.3202C244.418 97.7513 244.133 97.4668 243.564 97.4668C243.564 97.4668 243.28 97.2392 242.711 96.784C242.256 96.3288 241.516 95.8736 240.492 95.4184C239.468 93.8253 238.956 92.1183 238.956 90.2976C238.956 88.363 239.468 85.3474 240.492 81.2508C240.833 78.4058 241.914 75.1057 243.735 71.3504C245.67 67.4814 248.002 63.5554 250.734 59.5725C253.465 55.5896 256.31 52.005 259.268 48.8187C262.341 45.6324 265.129 43.2996 267.632 41.8202C269.225 40.2271 271.16 39.3736 273.436 39.2598C275.712 39.146 277.874 39.6581 279.922 40.7961C281.06 41.365 282.198 42.2754 283.336 43.5272C284.474 44.779 285.555 46.1445 286.579 47.6239C287.604 49.1032 288.457 50.5826 289.14 52.0619C289.481 53.3137 289.652 54.4517 289.652 55.4758C289.766 56.3862 289.766 57.5242 289.652 58.8897C289.652 60.2553 289.481 62.3036 289.14 65.0347C288.571 67.0831 288.059 69.5866 287.604 72.5453C287.262 75.504 287.092 78.0645 287.092 80.2266C286.864 82.3887 287.092 83.925 287.774 84.8353C288.571 85.7457 289.709 85.8026 291.188 85.006C292.554 84.3233 293.862 84.0388 295.114 84.1526C296.366 84.1526 297.333 84.494 298.016 85.1767C298.813 85.8595 299.211 86.8837 299.211 88.2492C299.211 89.6148 298.528 91.0373 297.163 92.5166C295.911 93.8822 294.318 95.077 292.383 96.1012C290.562 97.0116 288.798 97.4668 287.092 97.4668C285.84 97.4668 284.645 96.7271 283.507 95.2477C282.369 93.6546 281.345 91.7769 280.434 89.6148C279.638 87.3389 278.898 85.1767 278.215 83.1284L277.191 79.2024L269.851 86.2009C268.372 87.7941 266.893 89.2734 265.413 90.639C264.048 91.8907 263.194 92.8011 262.853 93.3701C262.284 94.3943 261.203 95.4184 259.61 96.4426C258.13 97.4668 256.082 98.4909 253.465 99.5151ZM253.977 89.4441C255.911 88.3061 258.13 86.6561 260.634 84.494C263.137 82.218 265.584 79.7714 267.974 77.1541C270.363 74.423 272.355 71.9194 273.948 69.6435C275.883 67.0262 277.362 64.5795 278.386 62.3036C279.41 60.0277 280.15 57.8656 280.605 55.8172C280.15 54.5655 279.41 53.2568 278.386 51.8912C277.362 50.4119 276.452 49.6153 275.655 49.5015C273.151 49.5015 270.477 51.0947 267.632 54.281C264.901 57.3535 262.227 60.7105 259.61 64.352C259.154 64.9209 258.529 65.8313 257.732 67.0831C256.935 68.3348 256.139 69.5297 255.342 70.6677C254.66 71.6918 254.204 72.3746 253.977 72.716C253.635 73.1712 252.953 74.4799 251.928 76.642C251.018 78.6903 250.108 80.7956 249.197 82.9577C248.287 85.006 247.832 86.3716 247.832 87.0544C247.832 87.7372 247.889 88.4768 248.002 89.2734C248.23 90.07 248.799 90.5821 249.709 90.8097C250.62 91.0373 252.042 90.5821 253.977 89.4441Z" fill="#D97706"/>
<path d="M208.051 113C204.296 112.431 201.735 111.009 200.37 108.733C199.118 106.57 198.833 103.213 199.516 98.6616C200.199 96.4995 200.597 94.565 200.711 92.858C200.939 91.0373 201.451 89.8993 202.247 89.4441C202.247 89.4441 202.304 89.2734 202.418 88.932C202.646 88.5906 202.589 88.2493 202.247 87.9079C202.247 86.4285 202.759 84.3802 203.784 81.7628C204.011 81.0801 204.296 80.2835 204.637 79.3731C205.092 78.3489 205.32 77.8369 205.32 77.8369C204.751 76.9265 204.751 76.1868 205.32 75.6178C205.889 75.0488 206.458 74.5368 207.027 74.0816C207.71 73.5126 207.766 72.8867 207.197 72.2039C206.97 71.7487 207.254 70.7246 208.051 69.1314C208.848 67.4245 209.758 65.6606 210.782 63.8399C211.806 62.0191 212.489 60.5967 212.83 59.5725C212.83 59.3449 213.115 58.5483 213.684 57.1828C214.253 55.8172 214.936 54.2241 215.732 52.4033C216.529 50.5826 217.268 48.9325 217.951 47.4532C218.748 45.9738 219.26 45.0065 219.488 44.5514C220.625 43.9824 220.17 43.5841 218.122 43.3565C216.074 43.1289 213.912 43.072 211.636 43.1858C208.108 43.072 205.263 42.9013 203.101 42.6737C201.052 42.4461 199.346 41.934 197.98 41.1375C196.614 39.5443 196.102 38.4063 196.444 37.7236C196.899 36.927 198.264 36.4718 200.54 36.358C202.02 36.2442 203.158 36.1873 203.954 36.1873C204.865 36.1873 206.003 36.1304 207.368 36.0166C208.848 35.789 211.123 35.5045 214.196 35.1631L222.901 34.4804L223.414 31.5786C224.324 30.0992 225.064 28.7905 225.633 27.6526C226.315 26.4008 226.884 25.149 227.339 23.8973C227.795 22.6455 228.136 21.3369 228.364 19.9713C228.364 19.9713 228.876 19.0609 229.9 17.2402C230.924 15.3056 231.55 13.3142 231.778 11.2659C233.143 8.98993 234.338 6.94159 235.362 5.12085C236.386 3.18631 237.012 1.99144 237.24 1.53626C238.492 0.512087 239.345 0 239.8 0C240.369 0 241.507 0.568984 243.214 1.70695C244.238 2.27594 245.149 2.95872 245.945 3.75529C246.742 4.55187 247.254 5.40534 247.481 6.31571C247.709 7.11229 247.368 7.90886 246.457 8.70543C246.23 9.16062 245.888 10.0141 245.433 11.2659C244.978 12.4038 244.637 13.3711 244.409 14.1677C243.726 14.9643 242.873 16.2729 241.849 18.0937C240.938 19.8006 240.312 21.5645 239.971 23.3852C239.061 25.3197 238.207 27.0836 237.41 28.6767C236.614 30.1561 235.988 30.8958 235.533 30.8958C235.76 32.0337 236.443 32.6027 237.581 32.6027C238.719 32.4889 240.597 32.3751 243.214 32.2613C245.376 32.0337 246.856 31.8061 247.652 31.5786C248.563 31.2372 249.587 31.351 250.725 31.9199C251.294 32.7165 251.749 33.6269 252.09 34.6511C252.432 35.6752 252.489 36.6425 252.261 37.5529C252.147 38.3494 251.692 38.9184 250.895 39.2598C250.326 39.2598 249.132 39.6012 247.311 40.284C245.604 40.853 243.442 41.1944 240.824 41.3082L231.778 42.1616L228.876 47.9653C228.079 49.4446 227.396 50.8102 226.827 52.0619C226.258 53.1999 225.86 53.8827 225.633 54.1103C225.633 54.7931 225.234 55.8172 224.438 57.1828C223.755 58.5483 223.015 60.0277 222.219 61.6209C221.536 63.5554 220.739 65.3192 219.829 66.9124C219.032 68.5055 218.634 69.3021 218.634 69.3021C218.179 69.3021 217.951 69.6435 217.951 70.3263C218.52 71.6918 218.35 72.716 217.439 73.3988C216.87 73.7402 216.358 74.2523 215.903 74.935C215.562 75.504 215.391 75.7885 215.391 75.7885C215.846 76.2437 215.903 76.8127 215.562 77.4955C215.334 78.1782 214.993 78.9179 214.537 79.7145C214.537 80.6249 214.253 81.9335 213.684 83.6405C213.229 85.3474 212.717 86.9406 212.148 88.4199C212.261 90.4683 212.375 91.7769 212.489 92.3459C212.603 92.9149 212.887 93.1425 213.343 93.0287C213.912 93.1425 214.424 93.1425 214.879 93.0287C215.334 92.9149 215.789 92.858 216.244 92.858C217.837 92.1752 216.984 96.1581 213.684 104.807C211.863 107.652 210.611 109.7 209.929 110.952C209.246 112.317 208.62 113 208.051 113Z" fill="#D97706"/>
<path d="M157.129 102.929C154.284 103.157 151.553 102.986 148.936 102.417C146.432 101.848 144.27 100.881 142.449 99.5151C140.742 98.0358 139.548 96.2719 138.865 94.2236C138.068 92.6304 137.67 91.5494 137.67 90.9804C137.67 90.2976 138.068 89.7286 138.865 89.2734C139.775 89.2734 140.572 89.5579 141.255 90.1269C142.051 90.5821 143.075 91.0942 144.327 91.6631C146.034 93.1425 148.082 93.9391 150.472 94.0529C152.976 94.1667 155.251 93.7684 157.3 92.858C159.348 91.9476 160.486 90.8097 160.714 89.4441C160.714 88.9889 160.543 88.1924 160.202 87.0544C159.86 85.9164 159.462 84.7216 159.007 83.4698C155.934 79.1455 153.658 74.8781 152.179 70.6677C150.813 66.3434 150.131 62.8157 150.131 60.0846C150.131 58.0363 150.757 55.8741 152.008 53.5982C153.26 51.2085 154.967 49.217 157.129 47.6239C159.177 45.4617 161.453 43.5272 163.957 41.8202C166.46 40.1133 168.964 38.6339 171.468 37.3822C174.085 36.1304 176.418 35.22 178.466 34.6511C179.718 34.6511 181.368 34.8218 183.416 35.1631C185.464 35.5045 186.887 35.9028 187.684 36.358C188.935 36.8132 190.13 38.065 191.268 40.1133C192.406 42.0478 192.975 43.9824 192.975 45.9169C192.975 46.7135 192.747 47.7377 192.292 48.9894C191.837 50.2412 191.097 51.7206 190.073 53.4275C189.618 54.6793 189.106 55.8741 188.537 57.0121C187.968 58.0363 187.684 58.7759 187.684 59.2311C187.115 60.4829 186.318 61.1088 185.294 61.1088C184.383 60.995 183.416 60.4829 182.392 59.5725C181.482 58.5483 180.742 57.3535 180.173 55.9879C179.718 54.281 179.547 52.9154 179.661 51.8912C179.775 50.7533 180.23 49.5584 181.026 48.3067C182.278 47.0549 182.904 46.2014 182.904 45.7462C182.904 45.291 182.278 45.0634 181.026 45.0634C180.23 45.0634 178.75 45.5755 176.588 46.5997C174.54 47.5101 172.321 48.7618 169.931 50.355C167.655 51.8344 165.664 53.4275 163.957 55.1344C161.795 57.1828 160.486 58.6621 160.031 59.5725C159.69 60.4829 159.519 61.9053 159.519 63.8399C159.519 65.433 159.86 67.4245 160.543 69.8142C161.34 72.2039 162.136 73.7971 162.933 74.5937C162.933 74.5937 163.331 75.3902 164.128 76.9834C164.924 78.4628 165.891 80.0559 167.029 81.7628C170.33 89.0458 171.183 94.2805 169.59 97.4668C167.997 100.653 163.843 102.474 157.129 102.929Z" fill="#D97706"/>
<path d="M123.128 98.4909C120.738 100.539 117.95 101.734 114.764 102.076C111.692 102.417 108.676 101.962 105.717 100.71C102.759 99.3444 100.312 97.296 98.3774 94.5649C96.4428 92.0614 95.1911 89.2165 94.6221 86.0302C94.0531 82.7301 93.9962 78.4627 94.4514 73.2281C94.7928 68.79 96.2153 64.3519 98.7188 59.9139C101.222 55.362 104.238 51.3222 107.766 47.7945C111.407 44.2669 114.992 41.8202 118.519 40.4547C120.226 39.3167 121.649 38.8046 122.787 38.9184C124.039 38.9184 125.916 39.0322 128.42 39.2598C131.037 39.6012 132.972 40.1133 134.223 40.7961C135.589 41.4788 136.67 42.3892 137.467 43.5272C139.173 45.2341 140.311 46.9411 140.88 48.648C141.449 50.2412 141.734 51.8343 141.734 53.4275C141.279 55.931 139.572 59.0035 136.613 62.645C133.768 66.1727 130.013 69.0745 125.347 71.3504C122.844 72.147 120.113 72.4884 117.154 72.3746C114.195 72.2608 111.748 71.5211 109.814 70.1556C107.652 69.2452 106.229 69.4159 105.547 70.6676C104.864 71.8056 104.238 74.6505 103.669 79.2024C103.214 83.5267 103.555 86.713 104.693 88.7613C105.831 90.6959 107.367 91.8338 109.302 92.1752C111.578 92.6304 113.342 92.9718 114.593 93.1994C115.959 93.3132 117.609 92.8011 119.544 91.6631C121.364 90.5252 122.502 89.8993 122.957 89.7855C123.413 89.5579 123.754 89.3303 123.982 89.1027C124.323 88.7613 125.063 88.0216 126.201 86.8837C126.997 86.0871 127.623 85.5181 128.078 85.1767C128.533 84.7215 129.046 84.4939 129.615 84.4939C130.184 84.4939 130.696 84.7784 131.151 85.3474C131.606 85.8026 132.061 86.144 132.516 86.3716C133.654 86.3716 133.882 87.0544 133.199 88.4199C132.63 89.7855 131.435 91.4355 129.615 93.3701C127.794 95.1908 125.632 96.8978 123.128 98.4909ZM122.957 62.3036C124.209 61.7346 125.518 60.9381 126.883 59.9139C128.249 58.7759 129.387 57.5811 130.297 56.3293C131.322 54.9637 131.834 53.8258 131.834 52.9154C131.834 51.3222 131.094 50.0136 129.615 48.9894C128.135 47.8514 125.916 47.6808 122.957 48.4773C121.706 48.8187 120.283 49.6722 118.69 51.0377C117.097 52.2895 115.561 53.712 114.081 55.3051C112.716 56.8983 111.578 58.3207 110.667 59.5725C109.871 60.8242 109.586 61.5639 109.814 61.7915C110.155 62.3605 111.123 62.8157 112.716 63.1571C114.309 63.3847 116.073 63.4416 118.007 63.3278C120.056 63.214 121.706 62.8726 122.957 62.3036Z" fill="#D97706"/>
<path d="M78.8206 97.2961C78.2516 97.0685 77.3982 96.4995 76.2602 95.5891C75.1222 94.6787 74.155 93.1425 73.3584 90.9804C72.5618 88.7044 72.1635 85.575 72.1635 81.5921C72.2773 78.1782 72.3342 75.504 72.3342 73.5695C72.448 71.6349 72.0497 70.6677 71.1394 70.6677C70.229 70.6677 68.4651 71.578 65.8478 73.3988C63.3443 75.1057 60.4425 77.4386 57.1424 80.3973C53.8423 83.356 50.4853 86.6561 47.0714 90.2976C45.9334 91.5493 44.7955 92.7442 43.6575 93.8822C42.6333 94.9063 41.6091 95.5891 40.585 95.9305C39.5608 96.1581 38.3659 95.7598 37.0004 94.7356L35.1227 93.1994C34.5538 92.6304 34.2124 92.0614 34.0986 91.4924C33.9848 90.8097 34.0417 90.07 34.2693 89.2734L38.1952 78.0075C40.016 73.9109 41.2678 70.9522 41.9505 69.1314C42.6333 67.1969 42.9747 66.002 42.9747 65.5468C42.9747 64.9778 42.804 64.7502 42.4626 64.864C41.5522 64.9778 40.1867 65.5468 38.3659 66.571C36.5452 67.4814 35.3503 68.3917 34.7813 69.3021C34.3262 69.3021 33.6434 69.8142 32.733 70.8384C31.8226 71.8625 30.6847 72.8298 29.3191 73.7402C28.5225 75.1057 26.9294 76.8696 24.5397 79.0317C22.2637 81.1938 19.9878 83.4129 17.7119 85.6888C16.2325 86.9406 14.7531 88.4768 13.2738 90.2976C11.9082 92.1183 10.7134 93.7115 9.6892 95.077C8.77883 96.4426 8.15295 97.1254 7.81156 97.1254C6.3322 97.1254 4.96665 96.7271 3.71488 95.9305C2.57692 95.1339 1.72344 93.8253 1.15446 92.0045C0.244087 90.07 0.244087 87.3958 1.15446 83.9819C2.06483 80.4542 3.089 75.9023 4.22697 70.3263C4.68215 68.6193 4.96664 67.3676 5.08044 66.571C5.19424 65.7744 5.36493 64.9778 5.59253 64.1813C5.93391 63.2709 6.446 61.9053 7.12878 60.0846C7.92536 58.2638 9.12022 55.5327 10.7134 51.8912C11.5099 49.7291 11.9651 48.1359 12.0789 47.1118C12.3065 45.9738 12.4203 45.1772 12.4203 44.722C12.4203 43.5841 12.7048 42.6168 13.2738 41.8202C13.9566 41.0237 14.7531 40.4547 15.6635 40.1133C16.5739 39.7719 17.4274 39.715 18.2239 39.9426C19.4757 40.1702 20.5568 40.7961 21.4671 41.8202C22.4913 42.8444 23.0603 44.2669 23.1741 46.0876C23.2879 47.4532 23.1741 48.7049 22.8327 49.8429C22.4913 50.8671 22.1499 51.8343 21.8085 52.7447L19.9309 57.3535C19.3619 58.6052 18.6222 60.426 17.7119 62.8157C16.8015 65.2054 16.0049 67.4245 15.3221 69.4728C14.6394 71.4073 14.298 72.5453 14.298 72.8867C14.4118 73.2281 14.81 73.1712 15.4928 72.716C16.1756 72.147 17.0291 71.4073 18.0532 70.497C19.1912 69.4728 20.3292 68.5055 21.4671 67.5952C23.8569 65.3192 26.5311 63.1571 29.4898 61.1088C32.5623 58.9466 35.4641 57.1259 38.1952 55.6465C40.9264 54.1672 43.0316 53.1999 44.511 52.7447C46.4455 52.7447 47.7542 53.0861 48.4369 53.7689C49.2335 54.4516 50.5422 55.7034 52.3629 57.5242C53.1595 58.3207 53.6147 59.3449 53.7285 60.5967C53.8423 61.8484 53.7854 63.0433 53.5578 64.1813C53.444 64.6365 53.1026 65.7744 52.5336 67.5952C51.9646 69.3021 51.3956 70.9522 50.8267 72.5453C50.3715 74.1385 50.1439 74.935 50.1439 74.935C50.1439 74.935 50.7698 74.3661 52.0215 73.2281C53.3871 72.0901 54.8664 70.8953 56.4596 69.6435C58.0527 68.2779 59.2476 67.2538 60.0442 66.571C64.4823 63.1571 68.3513 60.995 71.6514 60.0846C74.9515 59.1742 77.6258 60.3691 79.6741 63.6692C81.0397 64.9209 81.7224 66.2865 81.7224 67.7659C81.8362 69.2452 81.8931 71.8056 81.8931 75.4471C82.0069 76.9265 82.1207 78.6903 82.2345 80.7387C82.3483 82.787 82.4621 84.6646 82.5759 86.3716C82.8035 87.9647 83.0311 88.932 83.2587 89.2734C83.6001 89.7286 84.226 90.1269 85.1363 90.4683C86.1605 90.6959 87.4692 90.9235 89.0623 91.151C90.7693 91.3786 91.7934 92.1183 92.1348 93.3701C92.4762 94.6218 91.7365 95.8167 89.9158 96.9547C88.2088 97.9788 86.3312 98.434 84.2829 98.3202C82.2345 98.2064 80.4138 97.8651 78.8206 97.2961Z" fill="#D97706"/>
</svg>
