<svg width="512" height="512" viewBox="0 0 512 512" fill="none" xmlns="http://www.w3.org/2000/svg">
<circle cx="256" cy="256" r="256" fill="#D97706"/>
<path d="M380.606 348.997C378.423 348.122 375.149 345.935 370.783 342.436C366.417 338.936 362.705 333.031 359.649 324.719C356.593 315.97 355.065 303.94 355.065 288.63C355.501 275.507 355.72 265.227 355.72 257.79C356.156 250.353 354.628 246.635 351.135 246.635C347.642 246.635 340.875 250.135 330.833 257.134C321.227 263.696 310.094 272.663 297.432 284.037C284.77 295.41 271.89 308.096 258.792 322.094C254.426 326.906 250.06 331.5 245.694 335.874C241.764 339.811 237.835 342.436 233.905 343.748C229.976 344.623 225.391 343.092 220.152 339.155L212.948 333.249C210.765 331.062 209.455 328.875 209.018 326.688C208.582 324.063 208.8 321.22 209.673 318.157L224.736 274.85C231.722 259.102 236.525 247.729 239.145 240.73C241.764 233.293 243.074 228.7 243.074 226.95C243.074 224.763 242.419 223.888 241.109 224.325C237.616 224.763 232.377 226.95 225.391 230.887C218.406 234.387 213.821 237.886 211.638 241.386C209.892 241.386 207.272 243.354 203.779 247.291C200.286 251.228 195.92 254.947 190.681 258.446C187.624 263.696 181.512 270.476 172.343 278.787C163.611 287.099 154.879 295.629 146.146 304.378C140.471 309.19 134.795 315.095 129.119 322.094C123.879 329.094 119.295 335.218 115.365 340.467C111.873 345.717 109.471 348.341 108.161 348.341C102.485 348.341 97.2461 346.81 92.4434 343.748C88.0773 340.686 84.8027 335.655 82.6197 328.656C79.1268 321.22 79.1268 310.94 82.6197 297.816C86.1125 284.255 90.042 266.758 94.4081 245.323C96.1546 238.761 97.2461 233.949 97.6827 230.887C98.1193 227.825 98.7743 224.763 99.6475 221.701C100.957 218.201 102.922 212.952 105.542 205.953C108.598 198.954 113.182 188.455 119.295 174.457C122.351 166.145 124.098 160.021 124.534 156.084C125.407 151.71 125.844 148.647 125.844 146.898C125.844 142.523 126.936 138.805 129.119 135.743C131.738 132.681 134.795 130.493 138.288 129.181C141.78 127.869 145.055 127.65 148.111 128.525C152.914 129.4 157.062 131.806 160.555 135.743C164.484 139.68 166.667 145.148 167.104 152.147C167.54 157.396 167.104 162.208 165.794 166.583C164.484 170.52 163.174 174.238 161.864 177.738L154.66 195.454C152.477 200.266 149.639 207.265 146.146 216.451C142.654 225.638 139.597 234.168 136.978 242.042C134.358 249.479 133.048 253.853 133.048 255.165C133.485 256.478 135.013 256.259 137.633 254.509C140.252 252.322 143.527 249.479 147.456 245.979C151.822 242.042 156.189 238.324 160.555 234.824C169.723 226.075 179.984 217.764 191.336 209.89C203.124 201.578 214.258 194.579 224.736 188.892C235.215 183.206 243.292 179.487 248.968 177.738C256.391 177.738 261.412 179.05 264.031 181.675C267.088 184.299 272.109 189.111 279.094 196.11C282.151 199.172 283.897 203.109 284.334 207.921C284.77 212.733 284.552 217.326 283.679 221.701C283.242 223.451 281.932 227.825 279.749 234.824C277.566 241.386 275.383 247.729 273.2 253.853C271.454 259.977 270.581 263.039 270.581 263.039C270.581 263.039 272.982 260.852 277.785 256.478C283.024 252.103 288.7 247.51 294.812 242.698C300.925 237.449 305.509 233.512 308.566 230.887C325.593 217.764 340.438 209.452 353.1 205.953C365.762 202.453 376.022 207.046 383.881 219.732C389.12 224.544 391.74 229.794 391.74 235.48C392.177 241.167 392.395 251.01 392.395 265.008C392.831 270.695 393.268 277.475 393.705 285.349C394.141 293.223 394.578 300.441 395.014 307.003C395.888 313.127 396.761 316.845 397.634 318.157C398.944 319.907 401.345 321.438 404.838 322.751C408.768 323.626 413.789 324.5 419.901 325.375C426.45 326.25 430.38 329.094 431.69 333.906C433 338.717 430.162 343.311 423.176 347.685C416.627 351.622 409.423 353.372 401.564 352.934C393.705 352.497 386.719 351.185 380.606 348.997Z" fill="white"/>
</svg>
